<svg width="436" height="511" viewBox="0 0 436 511" fill="none" xmlns="http://www.w3.org/2000/svg">
<path d="M151.336 88.2009L82.8832 217.137L95.8587 326.748L140.231 379.869L294.319 322.883L392.52 238.186L378.495 138.533L281.433 55.4497L151.336 88.2009Z" fill="#FF6006" stroke="#FF6006"/>
<path d="M233.697 275.303C236.626 278.232 241.374 278.232 244.303 275.303L292.033 227.574C294.962 224.645 294.962 219.896 292.033 216.967C289.104 214.038 284.355 214.038 281.426 216.967L239 259.393L196.574 216.967C193.645 214.038 188.896 214.038 185.967 216.967C183.038 219.896 183.038 224.645 185.967 227.574L233.697 275.303ZM231.5 150L231.5 270L246.5 270L246.5 150L231.5 150Z" fill="white"/>
<path d="M234.5 532.5L137.5 441.5V352" stroke="#FF6006" stroke-width="20"/>
</svg>
