<svg width="295" height="443" viewBox="0 0 295 443" fill="none" xmlns="http://www.w3.org/2000/svg">
<path d="M287.814 303.615L238.312 166.284L148.412 102.247L79.2539 99.4182L17.9291 251.832L14.6781 381.472L97.9081 438.041L224.659 421.976L287.814 303.615Z" fill="#FF6006" stroke="#FF6006"/>
<path d="M152.303 221.697C149.374 218.768 144.626 218.768 141.697 221.697L93.967 269.426C91.0381 272.355 91.0381 277.104 93.967 280.033C96.8959 282.962 101.645 282.962 104.574 280.033L147 237.607L189.426 280.033C192.355 282.962 197.104 282.962 200.033 280.033C202.962 277.104 202.962 272.355 200.033 269.426L152.303 221.697ZM154.5 347L154.5 227H139.5L139.5 347H154.5Z" fill="white"/>
<path d="M27.5 5L82.5 105.5" stroke="#FF6006" stroke-width="20"/>
</svg>
