<svg width="362" height="233" viewBox="0 0 362 233" fill="none" xmlns="http://www.w3.org/2000/svg">
<path d="M148.803 215.233L283.303 167.733L343.303 100.344L343.303 53.2329L189.303 27.2329L60.3029 38.2329L7.45529 100.344L28.5787 184.526L148.803 215.233Z" fill="#FF6006" stroke="#FF6006"/>
<path d="M82.8145 105C82.5505 105 82.3345 104.916 82.1665 104.748C81.9985 104.58 81.9145 104.364 81.9145 104.1V80.7C81.9145 80.436 81.9985 80.22 82.1665 80.052C82.3585 79.884 82.5745 79.8 82.8145 79.8H87.4585C87.7225 79.8 87.9385 79.884 88.1065 80.052C88.2985 80.22 88.3945 80.436 88.3945 80.7V89.376H97.2505V80.7C97.2505 80.436 97.3345 80.22 97.5025 80.052C97.6705 79.884 97.8865 79.8 98.1505 79.8H102.795C103.059 79.8 103.275 79.884 103.443 80.052C103.611 80.22 103.695 80.436 103.695 80.7V104.1C103.695 104.364 103.611 104.58 103.443 104.748C103.275 104.916 103.059 105 102.795 105H98.1505C97.8865 105 97.6705 104.916 97.5025 104.748C97.3345 104.58 97.2505 104.364 97.2505 104.1V95.136H88.3945V104.1C88.3945 104.364 88.2985 104.58 88.1065 104.748C87.9385 104.916 87.7225 105 87.4585 105H82.8145ZM119.035 105.36C115.651 105.36 112.987 104.532 111.043 102.876C109.099 101.22 108.067 98.784 107.947 95.568C107.923 94.872 107.911 93.84 107.911 92.472C107.911 91.08 107.923 90.036 107.947 89.34C108.067 86.172 109.111 83.736 111.079 82.032C113.071 80.304 115.723 79.44 119.035 79.44C122.347 79.44 124.999 80.304 126.991 82.032C128.983 83.736 130.027 86.172 130.123 89.34C130.171 90.732 130.195 91.776 130.195 92.472C130.195 93.144 130.171 94.176 130.123 95.568C130.003 98.784 128.971 101.22 127.027 102.876C125.083 104.532 122.419 105.36 119.035 105.36ZM119.035 100.176C120.355 100.176 121.399 99.78 122.167 98.988C122.959 98.196 123.379 96.984 123.427 95.352C123.475 93.96 123.499 92.976 123.499 92.4C123.499 91.776 123.475 90.792 123.427 89.448C123.379 87.816 122.959 86.604 122.167 85.812C121.375 85.02 120.331 84.624 119.035 84.624C117.739 84.624 116.695 85.02 115.903 85.812C115.135 86.604 114.715 87.816 114.643 89.448C114.619 90.12 114.607 91.104 114.607 92.4C114.607 93.672 114.619 94.656 114.643 95.352C114.715 96.984 115.135 98.196 115.903 98.988C116.671 99.78 117.715 100.176 119.035 100.176ZM138.118 105C137.71 105 137.386 104.892 137.146 104.676C136.906 104.436 136.762 104.148 136.714 103.812L132.79 80.808C132.766 80.736 132.754 80.652 132.754 80.556C132.754 80.364 132.826 80.196 132.97 80.052C133.138 79.884 133.318 79.8 133.51 79.8H137.974C138.646 79.8 139.018 80.064 139.09 80.592L141.43 94.632L144.022 86.352C144.286 85.704 144.682 85.38 145.21 85.38H147.802C148.402 85.38 148.798 85.704 148.99 86.352L151.582 94.632L153.922 80.592C153.994 80.064 154.366 79.8 155.038 79.8H159.502C159.718 79.8 159.898 79.884 160.042 80.052C160.21 80.196 160.294 80.364 160.294 80.556L160.258 80.808L156.334 103.812C156.286 104.148 156.13 104.436 155.866 104.676C155.626 104.892 155.314 105 154.93 105H151.51C151.126 105 150.826 104.904 150.61 104.712C150.394 104.52 150.238 104.304 150.142 104.064L146.506 93.768L142.87 104.064C142.654 104.688 142.21 105 141.538 105H138.118ZM169.033 105C168.841 105 168.661 104.928 168.493 104.784C168.349 104.616 168.277 104.436 168.277 104.244C168.277 104.1 168.289 103.992 168.313 103.92L176.773 80.808C176.845 80.52 177.001 80.28 177.241 80.088C177.481 79.896 177.793 79.8 178.177 79.8H183.505C183.889 79.8 184.201 79.896 184.441 80.088C184.681 80.28 184.837 80.52 184.909 80.808L193.333 103.92L193.405 104.244C193.405 104.436 193.321 104.616 193.153 104.784C193.009 104.928 192.829 105 192.613 105H188.185C187.609 105 187.225 104.748 187.033 104.244L185.629 100.572H176.017L174.649 104.244C174.457 104.748 174.061 105 173.461 105H169.033ZM184.189 95.388L180.841 85.884L177.493 95.388H184.189ZM197.143 105C196.903 105 196.687 104.916 196.495 104.748C196.327 104.556 196.243 104.34 196.243 104.1V80.7C196.243 80.436 196.327 80.22 196.495 80.052C196.687 79.884 196.903 79.8 197.143 79.8H206.935C210.079 79.8 212.527 80.52 214.279 81.96C216.055 83.376 216.943 85.392 216.943 88.008C216.943 89.688 216.547 91.116 215.755 92.292C214.963 93.468 213.871 94.368 212.479 94.992L217.411 103.848C217.483 103.992 217.519 104.124 217.519 104.244C217.519 104.436 217.435 104.616 217.267 104.784C217.123 104.928 216.955 105 216.763 105H211.975C211.279 105 210.787 104.676 210.499 104.028L206.395 96.108H202.723V104.1C202.723 104.364 202.627 104.58 202.435 104.748C202.267 104.916 202.051 105 201.787 105H197.143ZM206.863 90.996C207.967 90.996 208.807 90.732 209.383 90.204C209.959 89.652 210.247 88.896 210.247 87.936C210.247 86.976 209.959 86.22 209.383 85.668C208.831 85.092 207.991 84.804 206.863 84.804H202.723V90.996H206.863ZM222.033 105C221.793 105 221.577 104.916 221.385 104.748C221.217 104.556 221.133 104.34 221.133 104.1V80.7C221.133 80.436 221.217 80.22 221.385 80.052C221.577 79.884 221.793 79.8 222.033 79.8H238.845C239.109 79.8 239.325 79.884 239.493 80.052C239.661 80.22 239.745 80.436 239.745 80.7V84.084C239.745 84.324 239.661 84.54 239.493 84.732C239.325 84.9 239.109 84.984 238.845 84.984H227.361V89.844H238.053C238.317 89.844 238.533 89.94 238.701 90.132C238.869 90.3 238.953 90.516 238.953 90.78V93.912C238.953 94.152 238.869 94.368 238.701 94.56C238.533 94.728 238.317 94.812 238.053 94.812H227.361V99.816H239.133C239.397 99.816 239.613 99.9 239.781 100.068C239.949 100.236 240.033 100.452 240.033 100.716V104.1C240.033 104.34 239.949 104.556 239.781 104.748C239.613 104.916 239.397 105 239.133 105H222.033ZM60.8707 148C60.6307 148 60.4147 147.916 60.2227 147.748C60.0547 147.556 59.9707 147.34 59.9707 147.1V139.36L51.6187 123.952C51.5467 123.736 51.5107 123.604 51.5107 123.556C51.5107 123.364 51.5827 123.196 51.7267 123.052C51.8947 122.884 52.0867 122.8 52.3027 122.8H56.8027C57.2827 122.8 57.7027 123.052 58.0627 123.556L63.2107 132.844L68.3947 123.556C68.6827 123.052 69.1027 122.8 69.6547 122.8H74.1547C74.3707 122.8 74.5507 122.884 74.6947 123.052C74.8387 123.196 74.9107 123.364 74.9107 123.556C74.9107 123.676 74.8867 123.808 74.8387 123.952L66.4867 139.36V147.1C66.4867 147.364 66.3907 147.58 66.1987 147.748C66.0307 147.916 65.8147 148 65.5507 148H60.8707ZM87.1305 148.36C83.7465 148.36 81.0825 147.532 79.1385 145.876C77.1945 144.22 76.1625 141.784 76.0425 138.568C76.0185 137.872 76.0065 136.84 76.0065 135.472C76.0065 134.08 76.0185 133.036 76.0425 132.34C76.1625 129.172 77.2065 126.736 79.1745 125.032C81.1665 123.304 83.8185 122.44 87.1305 122.44C90.4425 122.44 93.0945 123.304 95.0865 125.032C97.0785 126.736 98.1225 129.172 98.2185 132.34C98.2665 133.732 98.2905 134.776 98.2905 135.472C98.2905 136.144 98.2665 137.176 98.2185 138.568C98.0985 141.784 97.0665 144.22 95.1225 145.876C93.1785 147.532 90.5145 148.36 87.1305 148.36ZM87.1305 143.176C88.4505 143.176 89.4945 142.78 90.2625 141.988C91.0545 141.196 91.4745 139.984 91.5225 138.352C91.5705 136.96 91.5945 135.976 91.5945 135.4C91.5945 134.776 91.5705 133.792 91.5225 132.448C91.4745 130.816 91.0545 129.604 90.2625 128.812C89.4705 128.02 88.4265 127.624 87.1305 127.624C85.8345 127.624 84.7905 128.02 83.9985 128.812C83.2305 129.604 82.8105 130.816 82.7385 132.448C82.7145 133.12 82.7025 134.104 82.7025 135.4C82.7025 136.672 82.7145 137.656 82.7385 138.352C82.8105 139.984 83.2305 141.196 83.9985 141.988C84.7665 142.78 85.8105 143.176 87.1305 143.176ZM113.047 148.36C109.663 148.36 107.011 147.532 105.091 145.876C103.195 144.22 102.247 141.724 102.247 138.388V123.7C102.247 123.436 102.331 123.22 102.499 123.052C102.691 122.884 102.907 122.8 103.147 122.8H107.791C108.055 122.8 108.271 122.884 108.439 123.052C108.631 123.22 108.727 123.436 108.727 123.7V138.352C108.727 139.912 109.087 141.088 109.807 141.88C110.551 142.648 111.619 143.032 113.011 143.032C114.379 143.032 115.435 142.636 116.179 141.844C116.923 141.052 117.295 139.888 117.295 138.352V123.7C117.295 123.436 117.379 123.22 117.547 123.052C117.739 122.884 117.955 122.8 118.195 122.8H122.875C123.139 122.8 123.355 122.884 123.523 123.052C123.691 123.22 123.775 123.436 123.775 123.7V138.388C123.775 141.724 122.815 144.22 120.895 145.876C118.999 147.532 116.383 148.36 113.047 148.36ZM137.113 148C136.873 148 136.657 147.916 136.465 147.748C136.297 147.556 136.213 147.34 136.213 147.1V123.7C136.213 123.436 136.297 123.22 136.465 123.052C136.657 122.884 136.873 122.8 137.113 122.8H146.473C150.001 122.8 152.737 123.64 154.681 125.32C156.625 127 157.645 129.436 157.741 132.628C157.765 133.324 157.777 134.248 157.777 135.4C157.777 136.552 157.765 137.464 157.741 138.136C157.621 141.472 156.625 143.956 154.753 145.588C152.905 147.196 150.205 148 146.653 148H137.113ZM146.473 142.816C148.057 142.816 149.221 142.444 149.965 141.7C150.709 140.932 151.105 139.72 151.153 138.064C151.201 137.368 151.225 136.468 151.225 135.364C151.225 134.26 151.201 133.372 151.153 132.7C151.105 131.092 150.673 129.904 149.857 129.136C149.065 128.368 147.877 127.984 146.293 127.984H142.693V142.816H146.473ZM172.279 148.36C168.895 148.36 166.231 147.532 164.287 145.876C162.343 144.22 161.311 141.784 161.191 138.568C161.167 137.872 161.155 136.84 161.155 135.472C161.155 134.08 161.167 133.036 161.191 132.34C161.311 129.172 162.355 126.736 164.323 125.032C166.315 123.304 168.967 122.44 172.279 122.44C175.591 122.44 178.243 123.304 180.235 125.032C182.227 126.736 183.271 129.172 183.367 132.34C183.415 133.732 183.439 134.776 183.439 135.472C183.439 136.144 183.415 137.176 183.367 138.568C183.247 141.784 182.215 144.22 180.271 145.876C178.327 147.532 175.663 148.36 172.279 148.36ZM172.279 143.176C173.599 143.176 174.643 142.78 175.411 141.988C176.203 141.196 176.623 139.984 176.671 138.352C176.719 136.96 176.743 135.976 176.743 135.4C176.743 134.776 176.719 133.792 176.671 132.448C176.623 130.816 176.203 129.604 175.411 128.812C174.619 128.02 173.575 127.624 172.279 127.624C170.983 127.624 169.939 128.02 169.147 128.812C168.379 129.604 167.959 130.816 167.887 132.448C167.863 133.12 167.851 134.104 167.851 135.4C167.851 136.672 167.863 137.656 167.887 138.352C167.959 139.984 168.379 141.196 169.147 141.988C169.915 142.78 170.959 143.176 172.279 143.176ZM188.512 148C188.272 148 188.056 147.916 187.864 147.748C187.696 147.556 187.612 147.34 187.612 147.1V123.7C187.612 123.436 187.696 123.22 187.864 123.052C188.056 122.884 188.272 122.8 188.512 122.8H193.336C193.6 122.8 193.816 122.884 193.984 123.052C194.176 123.22 194.272 123.436 194.272 123.7V147.1C194.272 147.364 194.176 147.58 193.984 147.748C193.816 147.916 193.6 148 193.336 148H188.512ZM200.184 148C199.944 148 199.728 147.916 199.536 147.748C199.368 147.556 199.284 147.34 199.284 147.1V123.7C199.284 123.436 199.368 123.22 199.536 123.052C199.728 122.884 199.944 122.8 200.184 122.8H204C204.6 122.8 205.008 123.028 205.224 123.484L214.008 137.308V123.7C214.008 123.436 214.092 123.22 214.26 123.052C214.452 122.884 214.668 122.8 214.908 122.8H219.228C219.492 122.8 219.708 122.884 219.876 123.052C220.044 123.22 220.128 123.436 220.128 123.7V147.064C220.128 147.328 220.044 147.556 219.876 147.748C219.708 147.916 219.492 148 219.228 148H215.376C214.848 148 214.452 147.772 214.188 147.316L205.404 133.996V147.1C205.404 147.34 205.32 147.556 205.152 147.748C204.984 147.916 204.768 148 204.504 148H200.184ZM235.563 148.36C232.107 148.36 229.407 147.52 227.463 145.84C225.519 144.136 224.487 141.724 224.367 138.604C224.343 137.908 224.331 136.804 224.331 135.292C224.331 133.78 224.343 132.676 224.367 131.98C224.487 128.932 225.531 126.58 227.499 124.924C229.491 123.268 232.179 122.44 235.563 122.44C237.843 122.44 239.823 122.812 241.503 123.556C243.207 124.3 244.503 125.248 245.391 126.4C246.303 127.552 246.783 128.74 246.831 129.964C246.831 130.18 246.747 130.36 246.579 130.504C246.435 130.648 246.255 130.72 246.039 130.72H240.783C240.543 130.72 240.351 130.684 240.207 130.612C240.063 130.54 239.943 130.408 239.847 130.216C239.535 129.52 239.043 128.92 238.371 128.416C237.699 127.888 236.763 127.624 235.563 127.624C232.707 127.624 231.207 129.136 231.063 132.16C231.039 132.832 231.027 133.876 231.027 135.292C231.027 136.684 231.039 137.728 231.063 138.424C231.207 141.592 232.743 143.176 235.671 143.176C237.087 143.176 238.215 142.816 239.055 142.096C239.919 141.352 240.351 140.224 240.351 138.712V138.028H236.967C236.703 138.028 236.487 137.944 236.319 137.776C236.151 137.584 236.067 137.356 236.067 137.092V134.428C236.067 134.164 236.151 133.948 236.319 133.78C236.487 133.588 236.703 133.492 236.967 133.492H246.039C246.303 133.492 246.519 133.588 246.687 133.78C246.855 133.948 246.939 134.164 246.939 134.428V138.532C246.939 140.572 246.471 142.336 245.535 143.824C244.599 145.288 243.267 146.416 241.539 147.208C239.835 147.976 237.843 148.36 235.563 148.36ZM256.973 140.368C256.781 140.368 256.613 140.308 256.469 140.188C256.325 140.044 256.253 139.876 256.253 139.684V138.856C256.421 137.848 256.793 136.948 257.369 136.156C257.969 135.364 258.785 134.464 259.817 133.456C260.585 132.688 261.161 132.064 261.545 131.584C261.929 131.08 262.133 130.576 262.157 130.072C262.229 129.328 261.977 128.74 261.401 128.308C260.849 127.852 260.177 127.624 259.385 127.624C257.513 127.624 256.361 128.524 255.929 130.324C255.737 130.9 255.365 131.188 254.813 131.188H250.421C250.157 131.188 249.941 131.104 249.773 130.936C249.629 130.744 249.557 130.504 249.557 130.216C249.605 128.896 250.025 127.648 250.817 126.472C251.609 125.272 252.773 124.3 254.309 123.556C255.845 122.812 257.681 122.44 259.817 122.44C262.001 122.44 263.777 122.788 265.145 123.484C266.513 124.156 267.485 124.996 268.061 126.004C268.661 126.988 268.961 127.996 268.961 129.028C268.961 130.204 268.685 131.236 268.133 132.124C267.605 133.012 266.813 134.032 265.757 135.184C265.109 135.88 264.593 136.468 264.209 136.948C263.849 137.428 263.573 137.932 263.381 138.46C263.309 138.676 263.225 139 263.129 139.432C262.937 139.768 262.769 140.008 262.625 140.152C262.481 140.296 262.277 140.368 262.013 140.368H256.973ZM257.045 148C256.781 148 256.565 147.916 256.397 147.748C256.229 147.58 256.145 147.364 256.145 147.1V142.996C256.145 142.732 256.229 142.516 256.397 142.348C256.565 142.18 256.781 142.096 257.045 142.096H261.653C261.917 142.096 262.133 142.18 262.301 142.348C262.493 142.516 262.589 142.732 262.589 142.996V147.1C262.589 147.364 262.493 147.58 262.301 147.748C262.133 147.916 261.917 148 261.653 148H257.045Z" fill="white"/>
</svg>
