<svg width="421" height="284" viewBox="0 0 421 284" fill="none" xmlns="http://www.w3.org/2000/svg">
<path d="M279.876 40.6756L116.104 47.5805L26.9274 102.886L10.4908 156.143L169.96 239.11L314.978 271.552L394.485 219.724L400.738 117.213L279.876 40.6756Z" fill="#FF6006" stroke="#FF6006"/>
<path d="M124.166 113.36C120.734 113.36 118.046 112.532 116.102 110.876C114.182 109.196 113.162 106.772 113.042 103.604C113.018 102.956 113.006 101.9 113.006 100.436C113.006 98.948 113.018 97.868 113.042 97.196C113.162 94.076 114.206 91.676 116.174 89.996C118.142 88.292 120.806 87.44 124.166 87.44C126.278 87.44 128.174 87.8 129.854 88.52C131.534 89.216 132.854 90.224 133.814 91.544C134.798 92.84 135.302 94.364 135.326 96.116V96.188C135.326 96.38 135.242 96.548 135.074 96.692C134.93 96.812 134.762 96.872 134.57 96.872H129.71C129.398 96.872 129.158 96.812 128.99 96.692C128.822 96.548 128.678 96.296 128.558 95.936C128.222 94.712 127.694 93.86 126.974 93.38C126.254 92.876 125.306 92.624 124.13 92.624C121.298 92.624 119.834 94.208 119.738 97.376C119.714 98.024 119.702 99.02 119.702 100.364C119.702 101.708 119.714 102.728 119.738 103.424C119.834 106.592 121.298 108.176 124.13 108.176C125.306 108.176 126.266 107.924 127.01 107.42C127.754 106.892 128.27 106.04 128.558 104.864C128.654 104.504 128.786 104.264 128.954 104.144C129.122 104 129.374 103.928 129.71 103.928H134.57C134.786 103.928 134.966 104 135.11 104.144C135.278 104.288 135.35 104.468 135.326 104.684C135.302 106.436 134.798 107.972 133.814 109.292C132.854 110.588 131.534 111.596 129.854 112.316C128.174 113.012 126.278 113.36 124.166 113.36ZM137.355 113C137.163 113 136.983 112.928 136.815 112.784C136.671 112.616 136.599 112.436 136.599 112.244C136.599 112.1 136.611 111.992 136.635 111.92L145.095 88.808C145.167 88.52 145.323 88.28 145.563 88.088C145.803 87.896 146.115 87.8 146.499 87.8H151.827C152.211 87.8 152.523 87.896 152.763 88.088C153.003 88.28 153.159 88.52 153.231 88.808L161.655 111.92L161.727 112.244C161.727 112.436 161.643 112.616 161.475 112.784C161.331 112.928 161.151 113 160.935 113H156.507C155.931 113 155.547 112.748 155.355 112.244L153.951 108.572H144.339L142.971 112.244C142.779 112.748 142.383 113 141.783 113H137.355ZM152.511 103.388L149.163 93.884L145.815 103.388H152.511ZM165.465 113C165.225 113 165.009 112.916 164.817 112.748C164.649 112.556 164.565 112.34 164.565 112.1V88.7C164.565 88.436 164.649 88.22 164.817 88.052C165.009 87.884 165.225 87.8 165.465 87.8H169.281C169.881 87.8 170.289 88.028 170.505 88.484L179.289 102.308V88.7C179.289 88.436 179.373 88.22 179.541 88.052C179.733 87.884 179.949 87.8 180.189 87.8H184.509C184.773 87.8 184.989 87.884 185.157 88.052C185.325 88.22 185.409 88.436 185.409 88.7V112.064C185.409 112.328 185.325 112.556 185.157 112.748C184.989 112.916 184.773 113 184.509 113H180.657C180.129 113 179.733 112.772 179.469 112.316L170.685 98.996V112.1C170.685 112.34 170.601 112.556 170.433 112.748C170.265 112.916 170.049 113 169.785 113H165.465ZM204.464 113C204.224 113 204.008 112.916 203.816 112.748C203.648 112.556 203.564 112.34 203.564 112.1V104.36L195.212 88.952C195.14 88.736 195.104 88.604 195.104 88.556C195.104 88.364 195.176 88.196 195.32 88.052C195.488 87.884 195.68 87.8 195.896 87.8H200.396C200.876 87.8 201.296 88.052 201.656 88.556L206.804 97.844L211.988 88.556C212.276 88.052 212.696 87.8 213.248 87.8H217.748C217.964 87.8 218.144 87.884 218.288 88.052C218.432 88.196 218.504 88.364 218.504 88.556C218.504 88.676 218.48 88.808 218.432 88.952L210.08 104.36V112.1C210.08 112.364 209.984 112.58 209.792 112.748C209.624 112.916 209.408 113 209.144 113H204.464ZM230.724 113.36C227.34 113.36 224.676 112.532 222.732 110.876C220.788 109.22 219.756 106.784 219.636 103.568C219.612 102.872 219.6 101.84 219.6 100.472C219.6 99.08 219.612 98.036 219.636 97.34C219.756 94.172 220.8 91.736 222.768 90.032C224.76 88.304 227.412 87.44 230.724 87.44C234.036 87.44 236.688 88.304 238.68 90.032C240.672 91.736 241.716 94.172 241.812 97.34C241.86 98.732 241.884 99.776 241.884 100.472C241.884 101.144 241.86 102.176 241.812 103.568C241.692 106.784 240.66 109.22 238.716 110.876C236.772 112.532 234.108 113.36 230.724 113.36ZM230.724 108.176C232.044 108.176 233.088 107.78 233.856 106.988C234.648 106.196 235.068 104.984 235.116 103.352C235.164 101.96 235.188 100.976 235.188 100.4C235.188 99.776 235.164 98.792 235.116 97.448C235.068 95.816 234.648 94.604 233.856 93.812C233.064 93.02 232.02 92.624 230.724 92.624C229.428 92.624 228.384 93.02 227.592 93.812C226.824 94.604 226.404 95.816 226.332 97.448C226.308 98.12 226.296 99.104 226.296 100.4C226.296 101.672 226.308 102.656 226.332 103.352C226.404 104.984 226.824 106.196 227.592 106.988C228.36 107.78 229.404 108.176 230.724 108.176ZM256.641 113.36C253.257 113.36 250.605 112.532 248.685 110.876C246.789 109.22 245.841 106.724 245.841 103.388V88.7C245.841 88.436 245.925 88.22 246.093 88.052C246.285 87.884 246.501 87.8 246.741 87.8H251.385C251.649 87.8 251.865 87.884 252.033 88.052C252.225 88.22 252.321 88.436 252.321 88.7V103.352C252.321 104.912 252.681 106.088 253.401 106.88C254.145 107.648 255.213 108.032 256.605 108.032C257.973 108.032 259.029 107.636 259.773 106.844C260.517 106.052 260.889 104.888 260.889 103.352V88.7C260.889 88.436 260.973 88.22 261.141 88.052C261.333 87.884 261.549 87.8 261.789 87.8H266.469C266.733 87.8 266.949 87.884 267.117 88.052C267.285 88.22 267.369 88.436 267.369 88.7V103.388C267.369 106.724 266.409 109.22 264.489 110.876C262.593 112.532 259.977 113.36 256.641 113.36ZM280.707 113C280.467 113 280.251 112.916 280.059 112.748C279.891 112.556 279.807 112.34 279.807 112.1V88.7C279.807 88.436 279.891 88.22 280.059 88.052C280.251 87.884 280.467 87.8 280.707 87.8H290.067C293.595 87.8 296.331 88.64 298.275 90.32C300.219 92 301.239 94.436 301.335 97.628C301.359 98.324 301.371 99.248 301.371 100.4C301.371 101.552 301.359 102.464 301.335 103.136C301.215 106.472 300.219 108.956 298.347 110.588C296.499 112.196 293.799 113 290.247 113H280.707ZM290.067 107.816C291.651 107.816 292.815 107.444 293.559 106.7C294.303 105.932 294.699 104.72 294.747 103.064C294.795 102.368 294.819 101.468 294.819 100.364C294.819 99.26 294.795 98.372 294.747 97.7C294.699 96.092 294.267 94.904 293.451 94.136C292.659 93.368 291.471 92.984 289.887 92.984H286.287V107.816H290.067ZM315.873 113.36C312.489 113.36 309.825 112.532 307.881 110.876C305.937 109.22 304.905 106.784 304.785 103.568C304.761 102.872 304.749 101.84 304.749 100.472C304.749 99.08 304.761 98.036 304.785 97.34C304.905 94.172 305.949 91.736 307.917 90.032C309.909 88.304 312.561 87.44 315.873 87.44C319.185 87.44 321.837 88.304 323.829 90.032C325.821 91.736 326.865 94.172 326.961 97.34C327.009 98.732 327.033 99.776 327.033 100.472C327.033 101.144 327.009 102.176 326.961 103.568C326.841 106.784 325.809 109.22 323.865 110.876C321.921 112.532 319.257 113.36 315.873 113.36ZM315.873 108.176C317.193 108.176 318.237 107.78 319.005 106.988C319.797 106.196 320.217 104.984 320.265 103.352C320.313 101.96 320.337 100.976 320.337 100.4C320.337 99.776 320.313 98.792 320.265 97.448C320.217 95.816 319.797 94.604 319.005 93.812C318.213 93.02 317.169 92.624 315.873 92.624C314.577 92.624 313.533 93.02 312.741 93.812C311.973 94.604 311.553 95.816 311.481 97.448C311.457 98.12 311.445 99.104 311.445 100.4C311.445 101.672 311.457 102.656 311.481 103.352C311.553 104.984 311.973 106.196 312.741 106.988C313.509 107.78 314.553 108.176 315.873 108.176ZM124.285 156.36C122.005 156.36 120.049 156.024 118.417 155.352C116.785 154.68 115.549 153.804 114.709 152.724C113.893 151.62 113.461 150.42 113.413 149.124C113.413 148.932 113.485 148.764 113.629 148.62C113.797 148.452 113.989 148.368 114.205 148.368H118.741C119.029 148.368 119.257 148.428 119.425 148.548C119.617 148.644 119.809 148.8 120.001 149.016C120.313 149.64 120.817 150.156 121.513 150.564C122.209 150.972 123.133 151.176 124.285 151.176C125.653 151.176 126.697 150.96 127.417 150.528C128.137 150.096 128.497 149.508 128.497 148.764C128.497 148.236 128.305 147.804 127.921 147.468C127.561 147.132 126.985 146.832 126.193 146.568C125.401 146.304 124.225 146.004 122.665 145.668C119.785 145.068 117.625 144.192 116.185 143.04C114.769 141.864 114.061 140.196 114.061 138.036C114.061 136.572 114.469 135.264 115.285 134.112C116.101 132.96 117.265 132.06 118.777 131.412C120.289 130.764 122.053 130.44 124.069 130.44C126.157 130.44 127.969 130.8 129.505 131.52C131.041 132.24 132.205 133.152 132.997 134.256C133.813 135.336 134.245 136.404 134.293 137.46C134.293 137.676 134.221 137.856 134.077 138C133.933 138.144 133.753 138.216 133.537 138.216H128.785C128.497 138.216 128.257 138.168 128.065 138.072C127.897 137.976 127.741 137.82 127.597 137.604C127.453 137.052 127.057 136.584 126.409 136.2C125.785 135.816 125.005 135.624 124.069 135.624C122.989 135.624 122.161 135.816 121.585 136.2C121.009 136.584 120.721 137.148 120.721 137.892C120.721 138.396 120.877 138.816 121.189 139.152C121.525 139.488 122.053 139.8 122.773 140.088C123.517 140.352 124.573 140.628 125.941 140.916C128.173 141.324 129.949 141.84 131.269 142.464C132.613 143.064 133.597 143.856 134.221 144.84C134.845 145.8 135.157 147.012 135.157 148.476C135.157 150.084 134.689 151.488 133.753 152.688C132.841 153.864 131.557 154.776 129.901 155.424C128.269 156.048 126.397 156.36 124.285 156.36ZM149.056 156.36C145.672 156.36 143.008 155.532 141.064 153.876C139.12 152.22 138.088 149.784 137.968 146.568C137.944 145.872 137.932 144.84 137.932 143.472C137.932 142.08 137.944 141.036 137.968 140.34C138.088 137.172 139.132 134.736 141.1 133.032C143.092 131.304 145.744 130.44 149.056 130.44C152.368 130.44 155.02 131.304 157.012 133.032C159.004 134.736 160.048 137.172 160.144 140.34C160.192 141.732 160.216 142.776 160.216 143.472C160.216 144.144 160.192 145.176 160.144 146.568C160.024 149.784 158.992 152.22 157.048 153.876C155.104 155.532 152.44 156.36 149.056 156.36ZM149.056 151.176C150.376 151.176 151.42 150.78 152.188 149.988C152.98 149.196 153.4 147.984 153.448 146.352C153.496 144.96 153.52 143.976 153.52 143.4C153.52 142.776 153.496 141.792 153.448 140.448C153.4 138.816 152.98 137.604 152.188 136.812C151.396 136.02 150.352 135.624 149.056 135.624C147.76 135.624 146.716 136.02 145.924 136.812C145.156 137.604 144.736 138.816 144.664 140.448C144.64 141.12 144.628 142.104 144.628 143.4C144.628 144.672 144.64 145.656 144.664 146.352C144.736 147.984 145.156 149.196 145.924 149.988C146.692 150.78 147.736 151.176 149.056 151.176ZM165.289 156C165.049 156 164.833 155.916 164.641 155.748C164.473 155.556 164.389 155.34 164.389 155.1V131.7C164.389 131.436 164.473 131.22 164.641 131.052C164.833 130.884 165.049 130.8 165.289 130.8H169.177C169.753 130.8 170.173 131.064 170.437 131.592L176.773 142.932L183.109 131.592C183.373 131.064 183.793 130.8 184.369 130.8H188.221C188.485 130.8 188.701 130.884 188.869 131.052C189.061 131.22 189.157 131.436 189.157 131.7V155.1C189.157 155.364 189.061 155.58 188.869 155.748C188.701 155.916 188.485 156 188.221 156H183.937C183.673 156 183.445 155.916 183.253 155.748C183.085 155.58 183.001 155.364 183.001 155.1V141.6L178.969 149.124C178.657 149.676 178.237 149.952 177.709 149.952H175.837C175.525 149.952 175.273 149.88 175.081 149.736C174.889 149.592 174.721 149.388 174.577 149.124L170.509 141.6V155.1C170.509 155.34 170.425 155.556 170.257 155.748C170.089 155.916 169.873 156 169.609 156H165.289ZM195.102 156C194.862 156 194.646 155.916 194.454 155.748C194.286 155.556 194.202 155.34 194.202 155.1V131.7C194.202 131.436 194.286 131.22 194.454 131.052C194.646 130.884 194.862 130.8 195.102 130.8H211.914C212.178 130.8 212.394 130.884 212.562 131.052C212.73 131.22 212.814 131.436 212.814 131.7V135.084C212.814 135.324 212.73 135.54 212.562 135.732C212.394 135.9 212.178 135.984 211.914 135.984H200.43V140.844H211.122C211.386 140.844 211.602 140.94 211.77 141.132C211.938 141.3 212.022 141.516 212.022 141.78V144.912C212.022 145.152 211.938 145.368 211.77 145.56C211.602 145.728 211.386 145.812 211.122 145.812H200.43V150.816H212.202C212.466 150.816 212.682 150.9 212.85 151.068C213.018 151.236 213.102 151.452 213.102 151.716V155.1C213.102 155.34 213.018 155.556 212.85 155.748C212.682 155.916 212.466 156 212.202 156H195.102ZM223.638 156C223.398 156 223.182 155.916 222.99 155.748C222.822 155.556 222.738 155.34 222.738 155.1V136.452H216.33C216.09 136.452 215.874 136.368 215.682 136.2C215.514 136.008 215.43 135.792 215.43 135.552V131.7C215.43 131.436 215.514 131.22 215.682 131.052C215.874 130.884 216.09 130.8 216.33 130.8H235.698C235.962 130.8 236.178 130.884 236.346 131.052C236.514 131.22 236.598 131.436 236.598 131.7V135.552C236.598 135.816 236.514 136.032 236.346 136.2C236.178 136.368 235.962 136.452 235.698 136.452H229.29V155.1C229.29 155.34 229.206 155.556 229.038 155.748C228.87 155.916 228.654 156 228.39 156H223.638ZM240.77 156C240.506 156 240.29 155.916 240.122 155.748C239.954 155.58 239.87 155.364 239.87 155.1V131.7C239.87 131.436 239.954 131.22 240.122 131.052C240.314 130.884 240.53 130.8 240.77 130.8H245.414C245.678 130.8 245.894 130.884 246.062 131.052C246.254 131.22 246.35 131.436 246.35 131.7V140.376H255.206V131.7C255.206 131.436 255.29 131.22 255.458 131.052C255.626 130.884 255.842 130.8 256.106 130.8H260.75C261.014 130.8 261.23 130.884 261.398 131.052C261.566 131.22 261.65 131.436 261.65 131.7V155.1C261.65 155.364 261.566 155.58 261.398 155.748C261.23 155.916 261.014 156 260.75 156H256.106C255.842 156 255.626 155.916 255.458 155.748C255.29 155.58 255.206 155.364 255.206 155.1V146.136H246.35V155.1C246.35 155.364 246.254 155.58 246.062 155.748C245.894 155.916 245.678 156 245.414 156H240.77ZM267.594 156C267.354 156 267.138 155.916 266.946 155.748C266.778 155.556 266.694 155.34 266.694 155.1V131.7C266.694 131.436 266.778 131.22 266.946 131.052C267.138 130.884 267.354 130.8 267.594 130.8H272.418C272.682 130.8 272.898 130.884 273.066 131.052C273.258 131.22 273.354 131.436 273.354 131.7V155.1C273.354 155.364 273.258 155.58 273.066 155.748C272.898 155.916 272.682 156 272.418 156H267.594ZM279.266 156C279.026 156 278.81 155.916 278.618 155.748C278.45 155.556 278.366 155.34 278.366 155.1V131.7C278.366 131.436 278.45 131.22 278.618 131.052C278.81 130.884 279.026 130.8 279.266 130.8H283.082C283.682 130.8 284.09 131.028 284.306 131.484L293.09 145.308V131.7C293.09 131.436 293.174 131.22 293.342 131.052C293.534 130.884 293.75 130.8 293.99 130.8H298.31C298.574 130.8 298.79 130.884 298.958 131.052C299.126 131.22 299.21 131.436 299.21 131.7V155.064C299.21 155.328 299.126 155.556 298.958 155.748C298.79 155.916 298.574 156 298.31 156H294.458C293.93 156 293.534 155.772 293.27 155.316L284.486 141.996V155.1C284.486 155.34 284.402 155.556 284.234 155.748C284.066 155.916 283.85 156 283.586 156H279.266ZM314.645 156.36C311.189 156.36 308.489 155.52 306.545 153.84C304.601 152.136 303.569 149.724 303.449 146.604C303.425 145.908 303.413 144.804 303.413 143.292C303.413 141.78 303.425 140.676 303.449 139.98C303.569 136.932 304.613 134.58 306.581 132.924C308.573 131.268 311.261 130.44 314.645 130.44C316.925 130.44 318.905 130.812 320.585 131.556C322.289 132.3 323.585 133.248 324.473 134.4C325.385 135.552 325.865 136.74 325.913 137.964C325.913 138.18 325.829 138.36 325.661 138.504C325.517 138.648 325.337 138.72 325.121 138.72H319.865C319.625 138.72 319.433 138.684 319.289 138.612C319.145 138.54 319.025 138.408 318.929 138.216C318.617 137.52 318.125 136.92 317.453 136.416C316.781 135.888 315.845 135.624 314.645 135.624C311.789 135.624 310.289 137.136 310.145 140.16C310.121 140.832 310.109 141.876 310.109 143.292C310.109 144.684 310.121 145.728 310.145 146.424C310.289 149.592 311.825 151.176 314.753 151.176C316.169 151.176 317.297 150.816 318.137 150.096C319.001 149.352 319.433 148.224 319.433 146.712V146.028H316.049C315.785 146.028 315.569 145.944 315.401 145.776C315.233 145.584 315.149 145.356 315.149 145.092V142.428C315.149 142.164 315.233 141.948 315.401 141.78C315.569 141.588 315.785 141.492 316.049 141.492H325.121C325.385 141.492 325.601 141.588 325.769 141.78C325.937 141.948 326.021 142.164 326.021 142.428V146.532C326.021 148.572 325.553 150.336 324.617 151.824C323.681 153.288 322.349 154.416 320.621 155.208C318.917 155.976 316.925 156.36 314.645 156.36ZM146.147 199C145.907 199 145.691 198.916 145.499 198.748C145.331 198.556 145.247 198.34 145.247 198.1V174.7C145.247 174.436 145.331 174.22 145.499 174.052C145.691 173.884 145.907 173.8 146.147 173.8H162.707C162.971 173.8 163.187 173.884 163.355 174.052C163.523 174.22 163.607 174.436 163.607 174.7V178.336C163.607 178.576 163.523 178.792 163.355 178.984C163.187 179.152 162.971 179.236 162.707 179.236H151.583V184.528H161.987C162.251 184.528 162.467 184.624 162.635 184.816C162.803 184.984 162.887 185.2 162.887 185.464V189.064C162.887 189.304 162.803 189.52 162.635 189.712C162.467 189.88 162.251 189.964 161.987 189.964H151.583V198.1C151.583 198.364 151.499 198.58 151.331 198.748C151.163 198.916 150.947 199 150.683 199H146.147ZM177.621 199.36C174.237 199.36 171.573 198.532 169.629 196.876C167.685 195.22 166.653 192.784 166.533 189.568C166.509 188.872 166.497 187.84 166.497 186.472C166.497 185.08 166.509 184.036 166.533 183.34C166.653 180.172 167.697 177.736 169.665 176.032C171.657 174.304 174.309 173.44 177.621 173.44C180.933 173.44 183.585 174.304 185.577 176.032C187.569 177.736 188.613 180.172 188.709 183.34C188.757 184.732 188.781 185.776 188.781 186.472C188.781 187.144 188.757 188.176 188.709 189.568C188.589 192.784 187.557 195.22 185.613 196.876C183.669 198.532 181.005 199.36 177.621 199.36ZM177.621 194.176C178.941 194.176 179.985 193.78 180.753 192.988C181.545 192.196 181.965 190.984 182.013 189.352C182.061 187.96 182.085 186.976 182.085 186.4C182.085 185.776 182.061 184.792 182.013 183.448C181.965 181.816 181.545 180.604 180.753 179.812C179.961 179.02 178.917 178.624 177.621 178.624C176.325 178.624 175.281 179.02 174.489 179.812C173.721 180.604 173.301 181.816 173.229 183.448C173.205 184.12 173.193 185.104 173.193 186.4C173.193 187.672 173.205 188.656 173.229 189.352C173.301 190.984 173.721 192.196 174.489 192.988C175.257 193.78 176.301 194.176 177.621 194.176ZM193.854 199C193.614 199 193.398 198.916 193.206 198.748C193.038 198.556 192.954 198.34 192.954 198.1V174.7C192.954 174.436 193.038 174.22 193.206 174.052C193.398 173.884 193.614 173.8 193.854 173.8H203.646C206.79 173.8 209.238 174.52 210.99 175.96C212.766 177.376 213.654 179.392 213.654 182.008C213.654 183.688 213.258 185.116 212.466 186.292C211.674 187.468 210.582 188.368 209.19 188.992L214.122 197.848C214.194 197.992 214.23 198.124 214.23 198.244C214.23 198.436 214.146 198.616 213.978 198.784C213.834 198.928 213.666 199 213.474 199H208.686C207.99 199 207.498 198.676 207.21 198.028L203.106 190.108H199.434V198.1C199.434 198.364 199.338 198.58 199.146 198.748C198.978 198.916 198.762 199 198.498 199H193.854ZM203.574 184.996C204.678 184.996 205.518 184.732 206.094 184.204C206.67 183.652 206.958 182.896 206.958 181.936C206.958 180.976 206.67 180.22 206.094 179.668C205.542 179.092 204.702 178.804 203.574 178.804H199.434V184.996H203.574ZM226.408 199C226.168 199 225.952 198.916 225.76 198.748C225.592 198.556 225.508 198.34 225.508 198.1V174.7C225.508 174.436 225.592 174.22 225.76 174.052C225.952 173.884 226.168 173.8 226.408 173.8H230.296C230.872 173.8 231.292 174.064 231.556 174.592L237.892 185.932L244.228 174.592C244.492 174.064 244.912 173.8 245.488 173.8H249.34C249.604 173.8 249.82 173.884 249.988 174.052C250.18 174.22 250.276 174.436 250.276 174.7V198.1C250.276 198.364 250.18 198.58 249.988 198.748C249.82 198.916 249.604 199 249.34 199H245.056C244.792 199 244.564 198.916 244.372 198.748C244.204 198.58 244.12 198.364 244.12 198.1V184.6L240.088 192.124C239.776 192.676 239.356 192.952 238.828 192.952H236.956C236.644 192.952 236.392 192.88 236.2 192.736C236.008 192.592 235.84 192.388 235.696 192.124L231.628 184.6V198.1C231.628 198.34 231.544 198.556 231.376 198.748C231.208 198.916 230.992 199 230.728 199H226.408ZM256.221 199C255.981 199 255.765 198.916 255.573 198.748C255.405 198.556 255.321 198.34 255.321 198.1V174.7C255.321 174.436 255.405 174.22 255.573 174.052C255.765 173.884 255.981 173.8 256.221 173.8H273.033C273.297 173.8 273.513 173.884 273.681 174.052C273.849 174.22 273.933 174.436 273.933 174.7V178.084C273.933 178.324 273.849 178.54 273.681 178.732C273.513 178.9 273.297 178.984 273.033 178.984H261.549V183.844H272.241C272.505 183.844 272.721 183.94 272.889 184.132C273.057 184.3 273.141 184.516 273.141 184.78V187.912C273.141 188.152 273.057 188.368 272.889 188.56C272.721 188.728 272.505 188.812 272.241 188.812H261.549V193.816H273.321C273.585 193.816 273.801 193.9 273.969 194.068C274.137 194.236 274.221 194.452 274.221 194.716V198.1C274.221 198.34 274.137 198.556 273.969 198.748C273.801 198.916 273.585 199 273.321 199H256.221ZM284.217 191.368C284.025 191.368 283.857 191.308 283.713 191.188C283.569 191.044 283.497 190.876 283.497 190.684V189.856C283.665 188.848 284.037 187.948 284.613 187.156C285.213 186.364 286.029 185.464 287.061 184.456C287.829 183.688 288.405 183.064 288.789 182.584C289.173 182.08 289.377 181.576 289.401 181.072C289.473 180.328 289.221 179.74 288.645 179.308C288.093 178.852 287.421 178.624 286.629 178.624C284.757 178.624 283.605 179.524 283.173 181.324C282.981 181.9 282.609 182.188 282.057 182.188H277.665C277.401 182.188 277.185 182.104 277.017 181.936C276.873 181.744 276.801 181.504 276.801 181.216C276.849 179.896 277.269 178.648 278.061 177.472C278.853 176.272 280.017 175.3 281.553 174.556C283.089 173.812 284.925 173.44 287.061 173.44C289.245 173.44 291.021 173.788 292.389 174.484C293.757 175.156 294.729 175.996 295.305 177.004C295.905 177.988 296.205 178.996 296.205 180.028C296.205 181.204 295.929 182.236 295.377 183.124C294.849 184.012 294.057 185.032 293.001 186.184C292.353 186.88 291.837 187.468 291.453 187.948C291.093 188.428 290.817 188.932 290.625 189.46C290.553 189.676 290.469 190 290.373 190.432C290.181 190.768 290.013 191.008 289.869 191.152C289.725 191.296 289.521 191.368 289.257 191.368H284.217ZM284.289 199C284.025 199 283.809 198.916 283.641 198.748C283.473 198.58 283.389 198.364 283.389 198.1V193.996C283.389 193.732 283.473 193.516 283.641 193.348C283.809 193.18 284.025 193.096 284.289 193.096H288.897C289.161 193.096 289.377 193.18 289.545 193.348C289.737 193.516 289.833 193.732 289.833 193.996V198.1C289.833 198.364 289.737 198.58 289.545 198.748C289.377 198.916 289.161 199 288.897 199H284.289Z" fill="white"/>
</svg>
