<svg width="816" height="465" viewBox="0 0 816 465" fill="none" xmlns="http://www.w3.org/2000/svg">
<path d="M674.876 40.6756L511.104 47.5805L421.928 102.886L405.491 156.143L564.96 239.11L709.978 271.552L789.485 219.724L795.738 117.213L674.876 40.6756Z" fill="#FF6006" stroke="#FF6006"/>
<path d="M539.692 167.555C539.253 171.674 542.236 175.369 546.355 175.808L613.475 182.962C617.593 183.401 621.288 180.418 621.727 176.299C622.166 172.18 619.183 168.485 615.064 168.046L555.402 161.687L561.761 102.025C562.2 97.9065 559.217 94.2117 555.098 93.7727C550.98 93.3337 547.285 96.3168 546.846 100.436L539.692 167.555ZM551.861 174.186C569.006 160.344 591.126 144.413 614.694 135.357C638.165 126.338 662.13 124.46 684.1 137.145L691.6 124.154C664.307 108.397 635.224 111.399 609.313 121.356C583.498 131.275 559.9 148.417 542.438 162.515L551.861 174.186Z" fill="white"/>
<path d="M421.5 151.5L276.5 144L150.5 241L76 388L8 458" stroke="#FF6006" stroke-width="20"/>
</svg>
