<svg width="2773" height="2290" viewBox="0 0 2773 2290" fill="none" xmlns="http://www.w3.org/2000/svg">
<path fill-rule="evenodd" clip-rule="evenodd" d="M2773 0H0V2290H2773V0ZM1378.94 1023.88H1345.06V1108.56H1378.94V1023.88ZM1458.32 1140.74L1517.71 1081.34L1541.66 1105.31L1482.27 1164.69L1458.32 1140.74ZM1599.12 1244.06H1514.44V1277.94H1599.12V1244.06ZM1458.32 1381.26L1482.27 1357.31L1541.66 1416.69L1517.71 1440.66L1458.32 1381.26ZM1378.94 1498.12V1413.44H1345.06V1498.12H1378.94ZM1182.36 1416.69L1241.74 1357.31L1265.69 1381.27L1206.31 1440.66L1182.36 1416.69ZM1209.56 1244.06H1124.88V1277.94H1209.56V1244.06ZM1182.36 1105.31L1206.31 1081.34L1265.69 1140.74L1241.74 1164.69L1182.36 1105.31ZM1399.64 1204.67C1388.5 1197.22 1375.4 1193.25 1362 1193.25C1344.04 1193.27 1326.82 1200.42 1314.12 1213.12C1301.42 1225.82 1294.27 1243.04 1294.25 1261C1294.25 1274.4 1298.22 1287.5 1305.67 1298.64C1313.11 1309.78 1323.69 1318.46 1336.07 1323.59C1348.45 1328.72 1362.08 1330.06 1375.22 1327.45C1388.36 1324.83 1400.43 1318.38 1409.91 1308.91C1419.38 1299.43 1425.83 1287.36 1428.45 1274.22C1431.06 1261.08 1429.72 1247.45 1424.59 1235.07C1419.47 1222.69 1410.78 1212.11 1399.64 1204.67ZM1305.54 1176.5C1322.25 1165.34 1341.9 1159.38 1362 1159.38C1388.95 1159.38 1414.8 1170.08 1433.86 1189.14C1452.92 1208.2 1463.62 1234.05 1463.62 1261C1463.62 1281.1 1457.66 1300.75 1446.5 1317.46C1435.33 1334.17 1419.46 1347.2 1400.89 1354.89C1382.32 1362.58 1361.89 1364.59 1342.17 1360.67C1322.46 1356.75 1304.35 1347.07 1290.14 1332.86C1275.93 1318.65 1266.25 1300.54 1262.33 1280.83C1258.41 1261.11 1260.42 1240.68 1268.11 1222.11C1275.8 1203.54 1288.83 1187.67 1305.54 1176.5Z" fill="#FF6006"/>
</svg>
