<svg width="848" height="344" viewBox="0 0 848 344" fill="none" xmlns="http://www.w3.org/2000/svg">
<path d="M279.876 242.399L116.104 235.494L26.9276 180.189L10.491 126.932L169.96 43.9654L314.978 11.5225L394.485 63.351L400.738 165.862L279.876 242.399Z" fill="#FF6006" stroke="#FF6006"/>
<path d="M305.308 158.555C305.747 162.674 302.764 166.369 298.645 166.808L231.525 173.962C227.407 174.401 223.712 171.418 223.273 167.299C222.834 163.18 225.817 159.485 229.936 159.046L289.598 152.687L283.239 93.0253C282.8 88.9065 285.783 85.2117 289.902 84.7727C294.02 84.3337 297.715 87.3168 298.154 91.4356L305.308 158.555ZM293.139 165.186C275.994 151.344 253.874 135.413 230.306 126.357C206.835 117.338 182.87 115.46 160.9 128.145L153.4 115.154C180.693 99.3966 209.776 102.399 235.687 112.356C261.502 122.275 285.1 139.417 302.562 153.515L293.139 165.186Z" fill="white"/>
<path d="M383 70.5L507.5 21L645.5 70.5L774 209.5L838.5 339.5" stroke="#FF6006" stroke-width="20"/>
</svg>
